<?xml version="1.0" encoding="utf-8"?>
<!-- Generator: Adobe Illustrator 16.0.0, SVG Export Plug-In . SVG Version: 6.00 Build 0)  -->
<!DOCTYPE svg PUBLIC "-//W3C//DTD SVG 1.1//EN" "http://www.w3.org/Graphics/SVG/1.1/DTD/svg11.dtd">
<svg version="1.1" id="Layer_1" xmlns="http://www.w3.org/2000/svg" xmlns:xlink="http://www.w3.org/1999/xlink" x="0px" y="0px"
	 width="362.301px" height="283.54px" viewBox="0 0 362.301 283.54" enable-background="new 0 0 362.301 283.54"
	 xml:space="preserve">
<g>
	<g>
		<path fill-rule="evenodd" clip-rule="evenodd" fill="none" d="M363.051,285.04c-120.767,0-241.534,0-362.301,0
			c0-94.763,0-189.526,0-284.29c120.767,0,241.533,0,362.301,0C363.051,95.513,363.051,190.277,363.051,285.04z M8.996,7.521
			C8.242,6.902,7.528,6.223,6.724,5.679c-0.95-0.64-1.978-1.163-2.972-1.737C3.303,5.113,2.854,6.284,2.406,7.456
			c1.214,4.023,2.31,8.085,3.659,12.063c22.468,66.24,44.965,132.47,67.495,198.689c0.298,0.876,1.009,1.668,1.676,2.354
			c5.402,5.555,10.816,11.098,16.271,16.6c14.253,14.378,28.529,28.733,42.797,43.097c1.022,0.255,2.045,0.51,3.068,0.765
			c12.741,0.449,25.483,0.898,38.225,1.348c0.481,0.052,0.962,0.102,1.443,0.153c5.104,0.259,10.246,1.032,15.302,0.657
			c7.567-0.562,15.071-1.959,22.609-2.949c16.448-2.16,32.898-4.305,49.353-6.422c14.475-1.864,28.957-3.66,43.432-5.525
			c16.576-2.137,33.144-4.342,49.723-6.458c4.107-0.524,4.671-1.197,3.521-5.271c-20.051-71.021-40.112-142.039-60.171-213.057
			c0.396-2.451-0.567-3.433-3.064-2.98c-1.687,0.306-3.405,0.43-5.109,0.635c-0.267-1.547,0.632-3.792-2.256-3.771
			c-1.737-4.425-1.741-4.518-6.362-4.347c-3.591,0.132-7.185,0.426-10.756,0.833c-7.863,0.898-15.713,1.925-23.57,2.877
			c-8.722,1.057-17.485,1.84-26.161,3.194c-10.868,1.696-21.677,3.79-32.491,5.824c-18.661,3.509-37.079,7.998-55.006,14.314
			c-4.184,1.474-8.198,3.428-12.291,5.16c-1.502,0.062-3.004,0.125-4.506,0.187c0.368-0.299,0.692-0.705,1.112-0.881
			c22.665-9.495,46.28-15.734,70.37-20.228c12.407-2.315,24.887-4.268,37.369-6.148c10.889-1.64,21.814-3.058,32.748-4.368
			c7.872-0.942,15.78-1.603,23.684-2.256c1.986-0.165,2.183-1.138,1.253-2.324c-0.608-0.775-1.922-1.424-2.905-1.405
			c-5.093,0.098-10.188,0.325-15.27,0.702c-8.9,0.661-17.826,1.177-26.677,2.278c-11.784,1.466-23.564,3.111-35.24,5.257
			c-20.37,3.744-40.569,8.26-60.205,15.024c-11.233,3.869-21.83,9.064-32.188,14.805c-0.74,0.012-1.481,0.025-2.222,0.037
			c3.289-1.989,6.475-4.176,9.882-5.936c17.799-9.19,36.802-15.009,56.234-19.445c19.318-4.411,38.702-8.53,58.457-10.582
			c8.622-0.895,17.21-2.156,25.845-2.872c6.938-0.575,13.926-0.571,20.891-0.843c1.046-0.041,2.088-0.188,3.268-0.297
			c-2.259-4.429-2.953-4.796-6.998-3.95c-0.727,0.152-1.443,0.423-2.176,0.473c-11.396,0.776-22.806,1.388-34.188,2.318
			c-10.127,0.828-20.269,1.693-30.325,3.103c-11.762,1.648-23.523,3.51-35.127,6.013c-10.77,2.322-21.472,5.177-31.943,8.595
			c-10.302,3.362-20.078,8.161-29.178,14.133c-4.446,2.917-8.647,6.208-12.959,9.33c-2.22,0.16-4.44,0.321-6.66,0.483
			c-0.271-4.582-0.527-9.164-0.818-13.744c-0.465-7.333-2.696-14.164-6.472-20.395C81.397,20.095,70.022,11.96,58.768,3.772
			c-1.083-0.788-2.87-0.606-4.33-0.875c-0.079,0.25-0.158,0.501-0.237,0.752c1.191,1.778,2.382,3.556,3.573,5.334l-0.027,0.032
			c-1.283-0.917-2.822-1.621-3.795-2.794c-2.125-2.561-4.136-2.661-7.164-1.309c-2.545,1.135-0.287,1.759-0.277,2.592
			c-0.89-0.325-2.424-0.483-2.559-1.003c-0.651-2.511-2.51-2.081-4.179-1.99c-3.593,0.196-7.185,0.453-10.764,0.813
			c-2.252,0.227-4.481,0.684-7.381,1.141c2.657,1.563,4.737,2.858,6.883,4.035c8.536,4.683,16.562,10.099,23.763,16.67
			c9.463,8.633,16.156,19.22,21.287,30.839c1.243,2.815,1.986,5.851,2.959,8.785c-0.504-0.114-1.008-0.227-1.512-0.339
			c-1.388-3.446-2.743-6.907-4.17-10.336c-5.644-13.563-14.602-24.659-26.287-33.319C36.884,17.118,28.47,12.442,20.374,7.342
			c-0.378-0.238-0.923-0.326-1.381-0.302c-2.85,0.147-5.697,0.345-8.544,0.525C9.964,7.55,9.479,7.536,8.996,7.521z"/>
		<path fill-rule="evenodd" clip-rule="evenodd" fill="#FE5D4F" d="M300.808,43.497c20.059,71.018,40.12,142.037,60.171,213.057
			c1.15,4.074,0.587,4.747-3.521,5.271c-16.579,2.116-33.146,4.321-49.723,6.458c-14.475,1.865-28.957,3.661-43.432,5.525
			c-16.454,2.117-32.904,4.262-49.353,6.422c-7.538,0.99-15.042,2.388-22.609,2.949c-5.057,0.375-10.198-0.398-15.302-0.657
			c1.83-0.987,1.609-2.468,1.15-4.156c-8.004-29.439-15.969-58.89-23.956-88.335c-8.768-32.32-17.558-64.635-26.318-96.957
			c-2.172-8.015-4.268-16.05-6.398-24.075c2.601-0.161,5.221-0.177,7.8-0.513c5.655-0.738,11.287-1.658,16.933-2.466
			c9.329-1.335,18.669-2.596,27.992-3.971c9.318-1.375,18.62-2.86,27.932-4.281c9.555-1.458,19.108-2.927,28.671-4.335
			c7.482-1.102,14.982-2.086,22.466-3.185c9.443-1.387,18.871-2.884,28.319-4.242C288.012,45.088,294.415,44.327,300.808,43.497z"/>
		<path fill-rule="evenodd" clip-rule="evenodd" fill="#CC4A3F" d="M134.303,280.257c-14.268-14.363-28.543-28.719-42.797-43.097
			c-5.455-5.502-10.869-11.045-16.271-16.6c-0.667-0.686-1.378-1.478-1.676-2.354C51.029,151.988,28.533,85.758,6.064,19.518
			c-1.349-3.977-2.445-8.04-3.659-12.063c0.706,0.181,1.604,0.145,2.09,0.574c7.528,6.654,15.008,13.362,22.489,20.071
			c5.182,4.647,10.321,9.342,15.524,13.965c8.357,7.424,16.833,14.718,25.074,22.268c2.092,1.917,3.487,4.594,5.202,6.922
			l-0.01-0.016c0.25,0.766,0.5,1.532,0.75,2.298c6.821,22.883,13.643,45.765,20.464,68.649c4.899,16.434,9.832,32.857,14.69,49.304
			c6.723,22.757,13.424,45.52,20.063,68.301C130.72,266.576,132.456,273.433,134.303,280.257z"/>
		<path fill-rule="evenodd" clip-rule="evenodd" fill="#FE5D4F" d="M175.596,282.369c-12.742-0.449-25.483-0.898-38.225-1.348
			c-2.786-9.544-5.546-19.097-8.364-28.631c-4.687-15.854-9.447-31.688-14.112-47.55c-7.33-24.923-14.602-49.862-21.907-74.792
			c-5.558-18.967-11.136-37.928-16.691-56.896c-0.803-2.744-0.435-3.275,2.549-3.342c13.218-0.297,26.438-0.542,39.656-0.805
			c0.498,2.166,0.929,4.351,1.503,6.496c5.099,19.042,10.181,38.087,15.349,57.11c6.826,25.127,13.742,50.23,20.586,75.353
			c5.443,19.977,10.868,39.958,16.231,59.957C173.455,272.7,174.462,277.552,175.596,282.369z"/>
		<path fill-rule="evenodd" clip-rule="evenodd" fill="#FD9581" d="M118.503,69.006c-13.219,0.264-26.438,0.508-39.656,0.805
			c-2.983,0.067-3.352,0.599-2.549,3.342c5.555,18.968,11.133,37.929,16.691,56.896c7.306,24.929,14.577,49.869,21.907,74.792
			c4.665,15.861,9.425,31.695,14.112,47.55c2.818,9.534,5.578,19.087,8.364,28.631c-1.023-0.255-2.046-0.51-3.068-0.765
			c-1.847-6.824-3.583-13.681-5.561-20.467c-6.638-22.781-13.339-45.544-20.063-68.301c-4.858-16.446-9.791-32.87-14.69-49.304
			c-6.821-22.884-13.643-45.766-20.464-68.649c-0.25-0.766-0.5-1.532-0.75-2.298l0.01,0.016c0.731-1.438,1.463-2.875,2.195-4.313
			c-0.032-0.165-0.023-0.327,0.027-0.486c0.504,0.113,1.008,0.226,1.512,0.339c2.503-0.038,5.006-0.075,7.509-0.111
			c0.486-0.005,0.971-0.01,1.457-0.015c1.525-0.032,3.051-0.064,4.577-0.096c0.473,0.004,0.945,0.008,1.417,0.012
			c1.535-0.047,3.07-0.096,4.604-0.144c2.22-0.162,4.44-0.323,6.66-0.483c2.773-0.013,5.546-0.026,8.319-0.041
			c0.741-0.012,1.481-0.025,2.222-0.037c1.983-0.152,3.966-0.304,5.949-0.457c1.502-0.062,3.004-0.125,4.506-0.187
			c2.251-0.264,4.503-0.528,6.754-0.792c1.063-0.202,2.127-0.402,3.19-0.603l0.269,0.003l0.264-0.049
			c4.306-0.514,8.618-0.988,12.917-1.547c8.103-1.055,16.205-2.115,24.294-3.256c7.833-1.104,15.646-2.36,23.48-3.466
			c9.552-1.349,19.127-2.541,28.673-3.929c11.145-1.62,22.268-3.387,33.402-5.074c11.882-1.801,23.766-3.582,35.648-5.372
			c1.704-0.205,3.423-0.329,5.109-0.635c2.497-0.453,3.46,0.529,3.064,2.98c-6.393,0.831-12.796,1.592-19.177,2.51
			c-9.448,1.358-18.876,2.855-28.319,4.242c-7.483,1.099-14.983,2.083-22.466,3.185c-9.563,1.409-19.116,2.877-28.671,4.335
			c-9.312,1.421-18.613,2.906-27.932,4.281c-9.323,1.375-18.663,2.636-27.992,3.971c-5.646,0.808-11.278,1.728-16.933,2.466
			c-2.579,0.336-5.199,0.352-7.8,0.513C120.514,69.001,119.508,69.004,118.503,69.006z"/>
		<path fill-rule="evenodd" clip-rule="evenodd" fill="#E4E4E4" d="M111.063,65.917c-2.773,0.014-5.546,0.027-8.319,0.041
			c4.312-3.122,8.513-6.413,12.959-9.33c9.1-5.972,18.876-10.771,29.178-14.133c10.471-3.418,21.173-6.273,31.943-8.595
			c11.604-2.502,23.365-4.365,35.127-6.013c10.057-1.41,20.198-2.275,30.325-3.103c11.383-0.93,22.792-1.542,34.188-2.318
			c0.732-0.05,1.449-0.321,2.176-0.473c4.045-0.847,4.739-0.479,6.998,3.95c-1.18,0.11-2.222,0.256-3.268,0.297
			c-6.965,0.272-13.952,0.268-20.891,0.843c-8.635,0.716-17.223,1.977-25.845,2.872c-19.755,2.051-39.139,6.171-58.457,10.582
			c-19.432,4.437-38.435,10.255-56.234,19.445C117.538,61.742,114.352,63.928,111.063,65.917z"/>
		<path fill-rule="evenodd" clip-rule="evenodd" fill="#E4E4E4" d="M96.085,66.441c-1.535,0.048-3.069,0.097-4.604,0.144
			c0.181-17.699-8.108-36.522-16.438-40.471c10.648,11.438,14.646,25.29,15.021,40.459c-1.526,0.032-3.051,0.064-4.577,0.096
			c-0.248-1.207-0.477-2.417-0.746-3.62c-2.144-9.588-4.979-18.838-10.125-27.404c-5.032-8.375-12.09-14.782-18.938-21.419
			c-2.698-2.615-6.096-4.508-9.175-6.73l0.009,0.009c-0.01-0.833-2.268-1.457,0.277-2.592c3.028-1.352,5.039-1.252,7.164,1.309
			c0.973,1.173,2.513,1.876,3.795,2.794c4.166,5.155,5.397,6.148,7.804,6.291c-3.808-4.766-4.995-5.73-7.776-6.322
			c-1.191-1.778-2.382-3.556-3.573-5.334c0.079-0.251,0.158-0.502,0.237-0.752c1.46,0.268,3.247,0.087,4.33,0.875
			c11.254,8.188,22.629,16.323,30.027,28.53c3.776,6.231,6.007,13.062,6.472,20.395C95.558,57.277,95.813,61.859,96.085,66.441z
			 M74.069,24.434c-0.837-3.408-4.253-6.651-5.834-6.67C69.82,19.576,71.875,21.925,74.069,24.434z"/>
		<path fill-rule="evenodd" clip-rule="evenodd" fill="#CCCBCB" d="M292.634,41.152c-11.883,1.79-23.767,3.571-35.648,5.372
			c-11.135,1.687-22.258,3.455-33.402,5.074c-9.546,1.388-19.121,2.58-28.673,3.929c-7.834,1.106-15.646,2.362-23.48,3.466
			c-8.09,1.141-16.192,2.201-24.294,3.256c-4.3,0.56-8.611,1.034-12.917,1.547c0.398-0.266,0.762-0.656,1.2-0.777
			c5.135-1.414,10.242-2.957,15.431-4.137c13.144-2.993,26.299-5.947,39.502-8.663c7.62-1.566,15.33-2.708,23.02-3.913
			c8.056-1.261,16.117-2.515,24.209-3.501c7.859-0.958,15.763-1.542,23.641-2.348c9.723-0.994,19.438-2.048,29.157-3.075
			C293.266,37.36,292.367,39.604,292.634,41.152z"/>
		<path fill-rule="evenodd" clip-rule="evenodd" fill="#E4E4E4" d="M119.234,65.424c-1.983,0.152-3.966,0.304-5.949,0.457
			c10.359-5.741,20.955-10.936,32.188-14.805c19.636-6.764,39.835-11.28,60.205-15.024c11.676-2.146,23.456-3.792,35.24-5.257
			c8.851-1.101,17.776-1.618,26.677-2.278c5.081-0.377,10.177-0.604,15.27-0.702c0.983-0.019,2.297,0.63,2.905,1.405
			c0.93,1.186,0.733,2.159-1.253,2.324c-7.903,0.653-15.812,1.314-23.684,2.256c-10.934,1.31-21.859,2.728-32.748,4.368
			c-12.482,1.88-24.962,3.833-37.369,6.148c-24.09,4.494-47.706,10.733-70.37,20.228C119.926,64.719,119.603,65.125,119.234,65.424z
			"/>
		<path fill-rule="evenodd" clip-rule="evenodd" fill="#E4E4E4" d="M84.029,66.684c-2.503,0.037-5.006,0.074-7.509,0.111
			c-0.973-2.935-1.717-5.97-2.959-8.785c-5.13-11.62-11.824-22.206-21.287-30.839c-7.201-6.571-15.227-11.987-23.763-16.67
			c-2.146-1.177-4.226-2.473-6.883-4.035c2.899-0.458,5.128-0.915,7.381-1.141c3.58-0.36,7.171-0.617,10.764-0.813
			c1.668-0.091,3.528-0.521,4.179,1.99c0.135,0.52,1.669,0.678,2.559,1.003l-0.009-0.009c0.646,1.009,1.116,2.206,1.964,2.999
			c5.8,5.42,11.85,10.583,17.484,16.167c5.334,5.286,9.454,11.601,11.945,18.668C80.354,52.303,82.017,59.554,84.029,66.684z"/>
		<path fill-rule="evenodd" clip-rule="evenodd" fill="#E4E4E4" d="M290.378,37.381c-9.72,1.027-19.435,2.081-29.157,3.075
			c-7.878,0.806-15.781,1.39-23.641,2.348c-8.092,0.987-16.153,2.24-24.209,3.501c-7.689,1.205-15.399,2.347-23.02,3.913
			c-13.203,2.716-26.359,5.67-39.502,8.663c-5.189,1.181-10.296,2.724-15.431,4.137c-0.438,0.121-0.802,0.511-1.2,0.777
			l-0.264,0.049l-0.269-0.003c-1.063,0.201-2.127,0.401-3.19,0.603c-2.251,0.264-4.503,0.528-6.754,0.792
			c4.092-1.732,8.107-3.686,12.291-5.16c17.927-6.316,36.345-10.805,55.006-14.314c10.814-2.034,21.623-4.127,32.491-5.824
			c8.676-1.354,17.439-2.138,26.161-3.194c7.857-0.953,15.707-1.979,23.57-2.877c3.571-0.407,7.165-0.702,10.756-0.833
			C288.637,32.863,288.641,32.956,290.378,37.381z"/>
		<path fill-rule="evenodd" clip-rule="evenodd" fill="#CC4A3F" d="M118.503,69.006c1.005-0.002,2.011-0.004,3.016-0.006
			c2.13,8.025,4.226,16.06,6.398,24.075c8.76,32.322,17.55,64.636,26.318,96.957c7.987,29.445,15.952,58.896,23.956,88.335
			c0.459,1.688,0.679,3.169-1.15,4.156c-0.481-0.052-0.962-0.102-1.443-0.153c-1.134-4.817-2.142-9.669-3.424-14.447
			c-5.363-19.999-10.788-39.98-16.231-59.957c-6.844-25.123-13.76-50.226-20.586-75.353c-5.167-19.023-10.25-38.068-15.349-57.11
			C119.432,73.356,119,71.172,118.503,69.006z"/>
		<path fill-rule="evenodd" clip-rule="evenodd" fill="#E4E4E4" d="M10.448,7.565c2.848-0.18,5.694-0.378,8.544-0.525
			c0.458-0.023,1.003,0.064,1.381,0.302c8.096,5.1,16.51,9.776,24.177,15.458c11.685,8.66,20.643,19.756,26.287,33.319
			c1.427,3.43,2.782,6.89,4.17,10.336c-0.05,0.16-0.059,0.322-0.027,0.486c-2.988-2.808-5.976-5.615-8.964-8.423
			c-0.261-0.252-0.521-0.503-0.782-0.755l0.019,0.018c-0.278-0.252-0.556-0.504-0.834-0.756c-0.491-0.447-0.983-0.894-1.475-1.34
			c-0.233-0.927-0.202-2.066-0.745-2.746c-2.706-3.394-5.47-6.75-8.382-9.967C42.557,30.535,29.08,20.766,15.355,11.316
			c-0.742-0.511-1.83-0.521-2.757-0.764c-0.423-0.332-0.847-0.664-1.271-0.995c-0.335-0.387-0.671-0.774-1.006-1.161l-0.026,0.037
			C10.346,8.144,10.397,7.854,10.448,7.565z"/>
		<path fill-rule="evenodd" clip-rule="evenodd" fill="#FE5D4F" d="M11.328,9.557c0.423,0.332,0.847,0.664,1.271,0.995
			c0.394,0.477,0.734,1.011,1.188,1.42c13.53,12.183,27.059,24.369,40.623,36.515c2.771,2.482,5.687,4.803,8.536,7.199
			c0.492,0.447,0.984,0.894,1.475,1.34c0.278,0.252,0.556,0.504,0.834,0.756l-0.019-0.018c0.26,0.252,0.521,0.503,0.782,0.755
			c2.988,2.808,5.976,5.616,8.964,8.423c-0.732,1.438-1.464,2.875-2.195,4.313c-1.715-2.328-3.11-5.005-5.202-6.922
			c-8.241-7.55-16.717-14.844-25.074-22.268c-5.204-4.623-10.343-9.318-15.524-13.965c-7.48-6.708-14.96-13.417-22.489-20.071
			c-0.487-0.429-1.384-0.393-2.09-0.574c0.449-1.171,0.897-2.343,1.346-3.514c0.994,0.574,2.022,1.097,2.972,1.737
			c0.805,0.543,1.518,1.223,2.272,1.842c0.434,0.304,0.867,0.608,1.3,0.912l0.026-0.037C10.657,8.782,10.993,9.17,11.328,9.557z"/>
		<path fill-rule="evenodd" clip-rule="evenodd" fill="#CCCBCB" d="M10.295,8.433c-0.433-0.304-0.866-0.608-1.3-0.912
			c0.484,0.015,0.968,0.029,1.453,0.044C10.397,7.854,10.346,8.144,10.295,8.433z"/>
		<path fill-rule="evenodd" clip-rule="evenodd" fill="#FE5D4F" d="M72.776,71.239c0.25,0.766,0.5,1.532,0.75,2.298
			C73.275,72.771,73.026,72.004,72.776,71.239z"/>
		<path fill-rule="evenodd" clip-rule="evenodd" fill="none" d="M84.029,66.684c-2.012-7.13-3.676-14.381-6.134-21.353
			c-2.491-7.067-6.611-13.383-11.945-18.668c-5.634-5.584-11.684-10.748-17.484-16.167c-0.848-0.793-1.319-1.989-1.964-2.999
			c3.079,2.222,6.477,4.115,9.175,6.73c6.848,6.637,13.906,13.044,18.938,21.419c5.147,8.566,7.982,17.816,10.125,27.404
			c0.269,1.202,0.498,2.413,0.746,3.62C85,66.674,84.515,66.679,84.029,66.684z"/>
		<path fill-rule="evenodd" clip-rule="evenodd" fill="none" d="M90.063,66.573c-0.374-15.169-4.372-29.021-15.021-40.459
			c8.33,3.949,16.619,22.771,16.438,40.471C91.008,66.582,90.536,66.577,90.063,66.573z"/>
		<path fill-rule="evenodd" clip-rule="evenodd" fill="#CCCBCB" d="M130.495,64.445c1.063-0.202,2.127-0.402,3.19-0.603
			C132.623,64.043,131.559,64.244,130.495,64.445z"/>
		<path fill-rule="evenodd" clip-rule="evenodd" fill="none" d="M57.774,8.984c2.782,0.592,3.968,1.557,7.776,6.322
			c-2.406-0.142-3.638-1.135-7.804-6.291L57.774,8.984z"/>
		<path fill-rule="evenodd" clip-rule="evenodd" fill="none" d="M74.069,24.434c-2.194-2.508-4.249-4.857-5.834-6.67
			C69.816,17.782,73.231,21.026,74.069,24.434z"/>
		<path fill-rule="evenodd" clip-rule="evenodd" fill="#CCCBCB" d="M62.945,55.685c-2.849-2.396-5.764-4.717-8.536-7.199
			C40.845,36.34,27.316,24.155,13.786,11.972c-0.454-0.409-0.794-0.943-1.188-1.42c0.927,0.244,2.015,0.253,2.757,0.764
			c13.725,9.45,27.202,19.219,38.462,31.656c2.913,3.216,5.676,6.573,8.382,9.967C62.743,53.619,62.711,54.758,62.945,55.685z"/>
		<path fill-rule="evenodd" clip-rule="evenodd" fill="#CCCBCB" d="M11.328,9.557c-0.335-0.387-0.671-0.774-1.006-1.161
			C10.657,8.782,10.993,9.17,11.328,9.557z"/>
		<path fill-rule="evenodd" clip-rule="evenodd" fill="#CCCBCB" d="M65.254,57.782c-0.278-0.252-0.556-0.504-0.834-0.756
			C64.698,57.277,64.976,57.529,65.254,57.782z"/>
		<path fill-rule="evenodd" clip-rule="evenodd" fill="#CCCBCB" d="M66.017,58.519c-0.261-0.252-0.521-0.503-0.782-0.755
			C65.496,58.016,65.756,58.267,66.017,58.519z"/>
	</g>
</g>
</svg>
