<?xml version="1.0" encoding="utf-8"?>
<!-- Generator: Adobe Illustrator 16.0.0, SVG Export Plug-In . SVG Version: 6.00 Build 0)  -->
<!DOCTYPE svg PUBLIC "-//W3C//DTD SVG 1.1//EN" "http://www.w3.org/Graphics/SVG/1.1/DTD/svg11.dtd">
<svg version="1.1" id="Layer_1" xmlns="http://www.w3.org/2000/svg" xmlns:xlink="http://www.w3.org/1999/xlink" x="0px" y="0px"
	 width="183.025px" height="216.029px" viewBox="0 0 183.025 216.029" enable-background="new 0 0 183.025 216.029"
	 xml:space="preserve">
<g>
	<g>
		<path fill="none" d="M183.775,217.496c-60.957,0-121.914,0-182.948,0c0-72.142,0-144.315,0-216.618c60.931,0,121.939,0,182.948,0
			C183.775,73.009,183.775,145.235,183.775,217.496z M111.017,142.52c0.991,2.835,1.292,6.24,3.084,8.416
			c16.51,20.044,33.26,39.89,49.98,59.756c4.438,5.271,10.217,6.015,14.739,2.07c4.354-3.798,4.456-9.505,0.143-14.653
			c-17.234-20.576-34.477-41.149-51.808-61.646c-1.207-1.427-3.169-2.215-4.78-3.3c-3.46-4.099-6.764-8.345-10.437-12.241
			c-2.233-2.37-1.693-3.693,0.451-5.693c13.802-12.871,20.604-28.975,20.732-47.701C133.378,30.104,101.9,0.341,64.319,2.144
			C26.064,3.978-2.768,38.257,2.352,75.82c5.952,43.667,51.021,69.105,91.72,51.894c1.269-0.536,3.834,0.121,4.836,1.152
			C103.143,133.225,107.013,137.938,111.017,142.52z"/>
		<path fill="#A1A1A1" d="M111.017,142.52c-4.004-4.582-7.874-9.295-12.108-13.653c-1.002-1.031-3.567-1.688-4.836-1.152
			c-40.698,17.212-85.769-8.227-91.72-51.894C-2.768,38.257,26.064,3.978,64.319,2.144c37.582-1.802,69.059,27.96,68.805,65.383
			c-0.128,18.727-6.932,34.83-20.732,47.701c-2.146,2-2.686,3.323-0.451,5.693c3.673,3.896,6.977,8.144,10.437,12.241
			C118.59,136.281,114.803,139.4,111.017,142.52z M67.357,121.695c30.28,0.084,54.309-23.852,54.338-54.126
			c0.029-30.136-23.717-54.058-53.846-54.244c-30.272-0.188-54.391,23.67-54.526,53.938C13.188,97.54,37.083,121.61,67.357,121.695z
			 M35.313,13.754C49.979,5.728,65.395,2.857,81.809,6.867C72.3,0.521,46.613,4.253,35.313,13.754z M88.065,7.009
			c-0.15,0.433-0.3,0.865-0.45,1.298c3.272,1.492,6.544,2.984,9.816,4.478c0.169-0.387,0.338-0.772,0.507-1.157
			C94.646,10.087,91.356,8.548,88.065,7.009z"/>
		<path fill="#424242" d="M111.017,142.52c3.786-3.119,7.572-6.237,11.358-9.356c1.611,1.085,3.573,1.873,4.78,3.3
			c17.331,20.496,34.572,41.069,51.808,61.646c4.313,5.148,4.213,10.855-0.143,14.653c-4.522,3.943-10.302,3.201-14.739-2.07
			c-16.722-19.866-33.472-39.712-49.98-59.756C112.309,148.76,112.009,145.354,111.017,142.52z"/>
		<path fill="none" d="M67.357,121.695C37.083,121.61,13.188,97.54,13.324,67.263C13.46,36.994,37.577,13.136,67.85,13.324
			c30.129,0.188,53.875,24.108,53.846,54.244C121.666,97.844,97.637,121.779,67.357,121.695z"/>
		<path fill="#BBBBBB" d="M35.313,13.754C46.613,4.253,72.3,0.521,81.809,6.867C65.395,2.857,49.979,5.728,35.313,13.754z"/>
		<path fill="#BBBBBB" d="M88.065,7.009c3.291,1.539,6.582,3.078,9.873,4.617c-0.169,0.385-0.338,0.771-0.507,1.157
			c-3.271-1.492-6.544-2.984-9.816-4.478C87.765,7.874,87.915,7.442,88.065,7.009z"/>
	</g>
</g>
<path fill="#FFFFFF" d="M23.029,46.325c-7.55,11.119-8.973,25.166-2.333,37.047c3.146,5.629,11.784,0.588,8.635-5.047
	c-4.968-8.891-3.211-18.788,2.333-26.953C35.297,46.021,26.628,41.024,23.029,46.325z"/>
<path fill="#FFFFFF" d="M34.679,89.849c-6.449,0-6.449,10,0,10S41.128,89.849,34.679,89.849z"/>
</svg>
