<?xml version="1.0" encoding="utf-8"?>
<!-- Generator: Adobe Illustrator 16.0.0, SVG Export Plug-In . SVG Version: 6.00 Build 0)  -->
<!DOCTYPE svg PUBLIC "-//W3C//DTD SVG 1.1//EN" "http://www.w3.org/Graphics/SVG/1.1/DTD/svg11.dtd">
<svg version="1.1" id="Layer_1" xmlns="http://www.w3.org/2000/svg" xmlns:xlink="http://www.w3.org/1999/xlink" x="0px" y="0px"
	 width="158px" height="264.5px" viewBox="0 0 158 264.5" enable-background="new 0 0 158 264.5" xml:space="preserve">
<g>
	<g>
		<path fill-rule="evenodd" clip-rule="evenodd" fill="none" d="M-21.25,132.854c0-49.489,0.033-98.978-0.084-148.466
			c-0.007-2.841,0.75-3.203,3.321-3.2c66.109,0.079,132.22,0.081,198.329-0.005c2.633-0.003,3.294,0.452,3.291,3.229
			c-0.094,98.977-0.093,197.954-0.001,296.931c0.003,2.668-0.665,3.018-3.126,3.015c-66.234-0.08-132.469-0.082-198.704,0.004
			c-2.51,0.003-3.107-0.42-3.102-3.042C-21.223,231.83-21.25,182.342-21.25,132.854z M31.297,208.581
			c-0.178,1.101-0.277,2.221-0.546,3.299c-4.009,16.078-7.945,32.176-12.142,48.206c-0.917,3.504-0.046,4.106,3.307,4.029
			c9.366-0.219,18.74-0.076,28.111-0.076c28.487,0,56.974-0.04,85.461,0.059c2.967,0.01,3.875-0.516,2.996-3.644
			c-2.057-7.313-3.835-14.707-5.635-22.091c-2.418-9.917-4.751-19.854-7.12-29.782c7.123-0.016,14.246-0.032,21.369-0.048
			c6.902-0.015,9.426-2.552,9.426-9.517c0.003-39.366,0.103-78.732-0.1-118.097c-0.032-6.435-0.801-13-2.245-19.272
			c-9.089-39.464-46.652-65.095-86.487-59.302C30.876,7.699,2.199,41.187,2.04,79.419c-0.167,40.114-0.043,80.23-0.031,120.346
			c0.002,5.933,2.792,8.73,8.671,8.763C17.552,208.564,24.425,208.565,31.297,208.581z"/>
		<path fill-rule="evenodd" clip-rule="evenodd" fill="#010101" d="M31.298,208.581c-6.873-0.016-13.746-0.017-20.619-0.053
			c-5.879-0.032-8.669-2.83-8.671-8.763C1.997,159.649,1.873,119.534,2.04,79.419C2.199,41.187,30.876,7.699,67.693,2.345
			c39.834-5.792,77.398,19.838,86.487,59.302c1.444,6.272,2.213,12.837,2.245,19.272c0.202,39.365,0.103,78.731,0.1,118.097
			c0,6.965-2.523,9.502-9.426,9.517c-7.123,0.016-14.246,0.032-21.368,0.048c-0.243-0.55-0.572-1.078-0.717-1.653
			c-5.021-19.966-10.022-39.938-15.027-59.907c1.278-0.763,2.564-1.513,3.835-2.287c21.201-12.921,32.622-31.654,33.745-56.576
			c0.118-2.628-0.709-4.194-2.826-5.868c-8.415-6.656-17.034-13.154-24.75-20.571c-10.544-10.135-21.426-20.356-23.054-36.576
			c-3.216,2.993-5.845,6.108-9.084,8.338c-13.965,9.616-27.9,19.304-42.259,28.307c-9.79,6.137-19.967,11.82-31.486,14.42
			c-0.757,0.171-1.612,1.705-1.722,2.684c-2.659,23.782,5.433,43.395,23.36,58.993c3.547,3.087,7.674,5.509,11.533,8.237
			c-2.337,9.288-4.642,18.583-7.019,27.86C37.304,185.523,34.288,197.049,31.298,208.581z"/>
		<path fill-rule="evenodd" clip-rule="evenodd" fill="#FE7FB5" d="M109.986,147.021c5.005,19.97,10.007,39.941,15.027,59.907
			c0.145,0.575,0.474,1.104,0.717,1.653c2.368,9.929,4.701,19.865,7.119,29.782c1.8,7.384,3.578,14.777,5.635,22.091
			c0.879,3.128-0.029,3.653-2.996,3.644c-28.487-0.099-56.975-0.059-85.461-0.059c-9.371,0-18.745-0.143-28.111,0.076
			c-3.354,0.077-4.224-0.525-3.307-4.029c4.197-16.03,8.133-32.128,12.142-48.206c0.269-1.078,0.368-2.198,0.546-3.299
			c2.991-11.532,6.006-23.058,8.963-34.599c2.376-9.277,4.682-18.572,7.019-27.859c1.048,0.376,2.141,0.66,3.139,1.141
			c9.124,4.395,18.778,6.375,28.865,6.521C90.056,153.939,100.182,151.227,109.986,147.021z"/>
		<path fill-rule="evenodd" clip-rule="evenodd" fill="#FDE6BE" d="M109.986,147.021c-9.805,4.206-19.931,6.919-30.704,6.764
			c-10.087-0.146-19.741-2.126-28.865-6.521c-0.998-0.48-2.09-0.765-3.139-1.141c-3.859-2.729-7.986-5.151-11.533-8.238
			c-17.927-15.598-26.019-35.211-23.36-58.993c0.109-0.979,0.964-2.512,1.722-2.684c11.519-2.6,21.696-8.283,31.486-14.42
			c14.359-9.003,28.294-18.691,42.259-28.307c3.239-2.23,5.868-5.346,9.084-8.338c1.628,16.219,12.51,26.441,23.054,36.576
			c7.716,7.417,16.335,13.915,24.75,20.571c2.117,1.674,2.944,3.239,2.826,5.868c-1.123,24.922-12.544,43.654-33.745,56.576
			C112.551,145.508,111.265,146.258,109.986,147.021z M61.266,84.933c0.067-6.162-4.883-11.299-11.01-11.424
			c-6.274-0.129-11.516,5.025-11.501,11.308c0.014,6.17,5.017,11.174,11.198,11.203C56.142,96.049,61.199,91.093,61.266,84.933z
			 M119.023,84.625c-0.085-6.15-5.173-11.148-11.317-11.116c-6.268,0.032-11.363,5.32-11.192,11.615
			c0.167,6.145,5.313,11.018,11.504,10.896C114.19,95.899,119.109,90.807,119.023,84.625z"/>
		<path fill-rule="evenodd" clip-rule="evenodd" fill="#050504" d="M61.266,84.933c-0.067,6.16-5.124,11.116-11.314,11.087
			c-6.181-0.029-11.184-5.033-11.198-11.203c-0.015-6.283,5.228-11.437,11.501-11.308C56.383,73.634,61.333,78.771,61.266,84.933z"
			/>
		<path fill-rule="evenodd" clip-rule="evenodd" fill="#050504" d="M119.023,84.625c0.086,6.182-4.833,11.274-11.006,11.395
			c-6.191,0.122-11.337-4.751-11.504-10.896c-0.171-6.294,4.925-11.583,11.192-11.615C113.851,73.477,118.938,78.475,119.023,84.625
			z"/>
	</g>
</g>
</svg>
