<?xml version="1.0" encoding="utf-8"?>
<!-- Generator: Adobe Illustrator 16.0.0, SVG Export Plug-In . SVG Version: 6.00 Build 0)  -->
<!DOCTYPE svg PUBLIC "-//W3C//DTD SVG 1.1//EN" "http://www.w3.org/Graphics/SVG/1.1/DTD/svg11.dtd">
<svg version="1.1" id="Layer_1" xmlns="http://www.w3.org/2000/svg" xmlns:xlink="http://www.w3.org/1999/xlink" x="0px" y="0px"
	 width="197.277px" height="224.281px" viewBox="0 0 197.277 224.281" enable-background="new 0 0 197.277 224.281"
	 xml:space="preserve">
<g>
	<g>
		<path fill-rule="evenodd" clip-rule="evenodd" fill="none" d="M198.027,113.674c0,36.488-0.023,72.978,0.059,109.466
			c0.005,2.188-0.381,2.71-2.666,2.707c-63.98-0.081-127.96-0.085-191.941,0.008c-2.547,0.004-2.773-0.823-2.772-2.968
			C0.759,149.784,0.762,76.681,0.694,3.579C0.692,1.278,1.16,0.685,3.545,0.688C67.4,0.766,131.256,0.774,195.111,0.669
			c2.736-0.004,2.981,0.772,2.977,3.163C198.001,40.445,198.027,77.06,198.027,113.674z M132.744,23.816
			c-1.121,1.302-2.243,2.605-3.365,3.908c-0.229,0.065-0.363,0.215-0.399,0.452c-0.521,0.538-1.075,1.047-1.56,1.617
			c-13.179,15.516-26.392,31.005-39.504,46.578c-4.974,5.908-9.716,12.01-14.564,18.023c-1.199,4.463-2.477,8.909-3.521,13.408
			c-0.18,0.773,0.641,1.779,1,2.677c0.396-0.319,0.791-0.637,1.186-0.955c0.905-0.807,2.054-1.461,2.671-2.448
			c1.972-3.15,4.817-3.958,8.252-3.534c-1.944,2.427-3.827,4.906-5.839,7.273c-21.949,25.824-43.918,51.632-65.882,77.443
			c-0.397,1.007-0.794,2.013-1.191,3.021c-2.071,6.768-4.142,13.536-6.212,20.305c-0.307,1.945-0.613,3.891-0.919,5.836
			c-0.33,1.971-0.659,3.941-0.989,5.913c1.814-0.561,3.628-1.118,5.438-1.689c0.104-0.033,0.173-0.175,0.258-0.267
			c10.73-3.013,21.459-6.024,32.189-9.036c27.889-32.683,55.793-65.354,83.662-98.053c19.2-22.527,38.351-45.095,57.523-67.645
			c2.596-2.867,5.263-5.675,7.714-8.661c0.386-0.47-0.205-1.742-0.345-2.643c1.851-2.025,3.791-3.977,5.533-6.091
			c4.254-5.16,4.06-12.203-0.533-17.033c-2.317-2.437-4.795-4.743-7.361-6.917c-5.425-4.598-12.54-4.266-17.561,0.731
			c-1.943,1.934-3.783,3.972-5.67,5.963c-0.741,0.286-1.481,0.573-2.223,0.859c-0.769-0.373-1.568-0.692-2.302-1.126
			c-5.847-3.456-9.249-3.482-14.56,0.846c-3.323,2.71-6.093,6.1-9.111,9.184C133.955,22.442,133.35,23.129,132.744,23.816z"/>
		<path fill-rule="evenodd" clip-rule="evenodd" fill="#414141" d="M180.979,46.642c-19.173,22.55-38.323,45.118-57.523,67.645
			c-27.869,32.699-55.772,65.37-83.662,98.053c-9.524-8.027-19.049-16.055-28.574-24.082c21.964-25.812,43.933-51.619,65.882-77.443
			c2.013-2.367,3.896-4.846,5.839-7.273c1.86-2.192,3.721-4.383,5.583-6.575c0.464-0.4,0.991-0.748,1.384-1.208
			c16.777-19.676,33.544-39.363,50.311-59.048c3.592-4.093,7.256-8.126,10.739-12.309c1.502-1.803,2.465-2.365,4.265-0.224
			c2.552,3.036,5.279,5.995,8.301,8.551C169.201,37.53,175.146,42.021,180.979,46.642z"/>
		<path fill-rule="evenodd" clip-rule="evenodd" fill="#A0A0A0" d="M88.523,96.966c-1.861,2.192-3.722,4.383-5.583,6.575
			c-3.436-0.423-6.281,0.384-8.252,3.534c-0.618,0.987-1.766,1.641-2.671,2.448c0.441-2.926,0.999-5.84,1.285-8.78
			c0.205-2.099,0.046-4.232,0.05-6.35c4.848-6.014,9.59-12.116,14.564-18.023c13.112-15.572,26.325-31.062,39.504-46.578
			c0.484-0.569,1.038-1.079,1.56-1.615c-0.241,1.107-0.482,2.213-0.723,3.318c-0.099,0.11-0.197,0.22-0.296,0.33
			c0.105-0.103,0.212-0.205,0.317-0.308c2.372-2.242,4.671-4.568,7.13-6.71c5.393-4.698,10.866-9.305,15.695-13.425
			c-3.511,0.405-7.116,2.803-10.487,5.829c-1.871,1.68-4.027,3.04-6.056,4.544c3.019-3.084,5.788-6.474,9.111-9.184
			c5.311-4.329,8.713-4.302,14.56-0.846c0.733,0.434,1.533,0.753,2.302,1.125c5.121,9.308,12.215,16.754,21.4,22.069
			c1.485,0.859,3.37,3.559,5.513,0.599c0.301-0.06,0.601-0.12,0.901-0.18c0.14,0.901,0.73,2.173,0.345,2.643
			c-2.451,2.986-5.118,5.793-7.714,8.661c-5.833-4.621-11.777-9.112-17.456-13.915c-3.021-2.556-5.749-5.515-8.301-8.551
			c-1.8-2.141-2.763-1.579-4.265,0.224c-3.483,4.183-7.147,8.216-10.739,12.309c-2.228-2.681-4.167-2.226-6.29,0.294
			c-12.101,14.363-24.535,28.455-36.271,43.108C93.726,85.021,91.519,91.309,88.523,96.966z"/>
		<path fill-rule="evenodd" clip-rule="evenodd" fill="#424242" d="M188.348,35.338c-0.301,0.06-0.601,0.12-0.901,0.18
			c-10.667-4.419-18.251-12.312-24.437-21.757c-0.296-0.452-0.179-1.174-0.254-1.77c1.887-1.991,3.727-4.03,5.67-5.963
			c5.021-4.997,12.136-5.329,17.561-0.731c2.566,2.174,5.044,4.48,7.361,6.917c4.593,4.83,4.787,11.873,0.533,17.033
			C192.139,31.361,190.198,33.313,188.348,35.338z M177.429,6.908c0.346,0.427,0.692,0.854,1.038,1.28
			c0.716-0.679,1.431-1.358,2.146-2.036c-0.729-0.599-1.367-1.481-2.202-1.75c-4.159-1.335-6.677,1.527-9.305,3.927
			c-1.04,0.949-2.741,2.137-0.691,3.471c0.638,0.415,2.28-0.3,3.235-0.875C173.656,9.718,175.512,8.262,177.429,6.908z"/>
		<path fill-rule="evenodd" clip-rule="evenodd" fill="#A0A0A0" d="M11.22,188.258c9.524,8.027,19.049,16.055,28.574,24.082
			c-10.729,3.012-21.459,6.023-32.189,9.036c-1.569-1.319-3.138-2.638-4.708-3.957c0.307-1.945,0.613-3.891,0.919-5.837
			c2.191,1.291,2.6-0.62,3.034-1.885c1.525-4.446,3.094-8.899,4.201-13.458c0.36-1.483-0.643-3.299-1.021-4.961
			C10.426,190.271,10.823,189.265,11.22,188.258z"/>
		<path fill-rule="evenodd" clip-rule="evenodd" fill="#C0C0C0" d="M162.756,11.992c0.075,0.596-0.042,1.318,0.254,1.77
			c6.186,9.445,13.77,17.337,24.437,21.757c-2.143,2.96-4.027,0.26-5.513-0.599c-9.186-5.314-16.279-12.761-21.4-22.069
			C161.274,12.565,162.015,12.278,162.756,11.992z"/>
		<path fill-rule="evenodd" clip-rule="evenodd" fill="#C0C0C0" d="M134.561,21.756c2.028-1.504,4.185-2.864,6.056-4.544
			c3.371-3.026,6.977-5.424,10.487-5.829c-4.829,4.12-10.303,8.727-15.695,13.425c-2.459,2.142-4.758,4.468-7.13,6.71l-0.021-0.022
			c0.24-1.105,0.481-2.211,0.723-3.318c0.036-0.238,0.17-0.388,0.401-0.454c2.525-0.095,3.467-1.552,3.363-3.907
			C133.35,23.129,133.955,22.442,134.561,21.756z"/>
		<path fill-rule="evenodd" clip-rule="evenodd" fill="#C0C0C0" d="M10.029,191.278c0.379,1.662,1.382,3.478,1.021,4.961
			c-1.107,4.559-2.675,9.012-4.201,13.458c-0.434,1.265-0.843,3.176-3.034,1.885C5.887,204.814,7.958,198.046,10.029,191.278z"/>
		<path fill-rule="evenodd" clip-rule="evenodd" fill="#C0C0C0" d="M73.352,94.394c-0.004,2.118,0.155,4.251-0.05,6.35
			c-0.287,2.94-0.844,5.854-1.285,8.78c-0.396,0.318-0.791,0.636-1.186,0.955c-0.358-0.898-1.179-1.903-1-2.677
			C70.875,103.303,72.153,98.857,73.352,94.394z"/>
		<path fill-rule="evenodd" clip-rule="evenodd" fill="#575757" d="M2.897,217.419c1.569,1.319,3.139,2.638,4.708,3.957
			c-0.085,0.092-0.154,0.233-0.258,0.267c-1.81,0.571-3.625,1.129-5.438,1.689C2.238,221.36,2.567,219.39,2.897,217.419z"/>
		<path fill-rule="evenodd" clip-rule="evenodd" fill="#A0A0A0" d="M132.744,23.816c0.104,2.355-0.838,3.812-3.363,3.907
			C130.501,26.421,131.623,25.118,132.744,23.816z"/>
		<path fill-rule="evenodd" clip-rule="evenodd" fill="none" d="M88.523,96.966c2.995-5.657,5.202-11.946,9.133-16.854
			c11.736-14.653,24.17-28.745,36.271-43.108c2.123-2.52,4.063-2.975,6.29-0.294c-16.767,19.685-33.533,39.372-50.311,59.048
			C89.514,96.218,88.987,96.566,88.523,96.966z"/>
		<path fill-rule="evenodd" clip-rule="evenodd" fill="#C0C0C0" d="M128.278,31.518c-0.105,0.103-0.212,0.205-0.317,0.308
			c0.099-0.11,0.197-0.22,0.296-0.33L128.278,31.518z"/>
		<path fill-rule="evenodd" clip-rule="evenodd" fill="#575757" d="M177.429,6.908c-1.917,1.354-3.772,2.81-5.778,4.017
			c-0.955,0.575-2.598,1.29-3.235,0.875c-2.05-1.333-0.349-2.521,0.691-3.471c2.628-2.4,5.146-5.263,9.305-3.927
			c0.835,0.268,1.473,1.15,2.202,1.75c-0.716,0.678-1.431,1.357-2.146,2.036C178.121,7.762,177.774,7.335,177.429,6.908z"/>
	</g>
</g>
</svg>
