<?xml version="1.0" encoding="utf-8"?>
<!-- Generator: Adobe Illustrator 16.0.0, SVG Export Plug-In . SVG Version: 6.00 Build 0)  -->
<!DOCTYPE svg PUBLIC "-//W3C//DTD SVG 1.1//EN" "http://www.w3.org/Graphics/SVG/1.1/DTD/svg11.dtd">
<svg version="1.1" id="Layer_1" xmlns="http://www.w3.org/2000/svg" xmlns:xlink="http://www.w3.org/1999/xlink" x="0px" y="0px"
	 width="362.588px" height="264.997px" viewBox="0 0 362.588 264.997" enable-background="new 0 0 362.588 264.997"
	 xml:space="preserve">
<g>
	<g>
		<path fill-rule="evenodd" clip-rule="evenodd" fill="none" d="M0.75,265.748c0-88.333,0-176.665,0-264.998
			c121.113,0,242.226,0,363.339,0c0,88.333,0,176.665,0,264.998C242.977,265.748,121.864,265.748,0.75,265.748z M118.487,256.01
			c-0.633,2.878-1.266,5.754-1.913,8.691c40.531,0,80.788,0,121.247,0c-0.728-3.1-1.379-5.877-2.03-8.654
			c38.389,0,76.777,0,115.534,0c-9.592-39.579-19.081-78.731-28.533-117.729c0.322-0.398,0.443-0.636,0.637-0.77
			c0.409-0.284,0.857-0.516,1.288-0.769c27.066-15.888,39.577-39.353,36.429-70.724c-3.275-32.634-33.01-59.91-65.964-60.754
			c-23.238-0.595-42.342,8.089-57.4,25.754c-1.099-1.187-2.192-2.377-3.297-3.559C218.81,10.722,199.539,1.977,176.531,2.314
			c-21.138,0.311-38.952,8.692-53.804,23.587c-0.588-0.457-1.212-0.876-1.761-1.378C104.605,9.6,85.529,3.306,63.426,5.913
			C31.375,9.694,4.242,38.558,3.107,70.742c-0.969,27.497,10.208,48.867,33.331,63.842c2.24,1.45,2.912,2.696,2.243,5.404
			c-6.397,25.918-12.627,51.876-18.907,77.822c-3.049,12.597-6.101,25.193-9.251,38.2C46.749,256.011,82.617,256.011,118.487,256.01
			z"/>
		<path fill-rule="evenodd" clip-rule="evenodd" fill="#FE9C56" d="M237.781,31.057c15.059-17.666,34.162-26.349,57.4-25.754
			c32.954,0.844,62.688,28.12,65.964,60.754c3.148,31.371-9.362,54.835-36.429,70.724c-0.431,0.253-0.879,0.484-1.288,0.769
			c-0.193,0.134-0.314,0.371-0.637,0.77c9.452,38.997,18.941,78.149,28.533,117.729c-38.757,0-77.146,0-115.534,0
			c-1.021-4.464-2.042-8.928-3.062-13.392c2.733-11.028,5.468-22.058,8.202-33.085c1.372-0.041,2.743-0.115,4.115-0.118
			c7.938-0.015,10.176-2.278,10.196-10.271c0.042-16.488,0.104-32.977,0.156-49.465c0.891-3.449,1.734-6.91,2.687-10.342
			c0.709-2.555-0.097-4.064-2.752-4.504c-0.031-15.602-0.471-31.217,0.006-46.804C255.985,66.949,250.725,47.877,237.781,31.057z
			 M302.173,110.45c-6.962,6.14-13.455,6.182-21.925,0.265c-1.112,0.929-2.244,1.874-3.329,2.778
			c3.688,9.097,25.007,8.825,28.721-0.025C304.574,112.54,303.46,111.57,302.173,110.45z"/>
		<path fill-rule="evenodd" clip-rule="evenodd" fill="#56B7FE" d="M118.486,256.011c-35.869,0-71.738,0-107.963,0
			c3.15-13.007,6.202-25.604,9.251-38.2c6.28-25.946,12.51-51.904,18.907-77.822c0.668-2.708-0.003-3.954-2.243-5.404
			c-23.123-14.976-34.3-36.346-33.331-63.842C4.242,38.558,31.375,9.694,63.426,5.913c22.103-2.607,41.179,3.688,57.541,18.611
			c0.549,0.501,1.173,0.921,1.765,1.374c-13.674,14.748-21.734,32.138-21.96,52.26c-0.461,41.092-0.178,82.192-0.159,123.29
			c0.002,4.952,3.002,7.879,7.936,7.988c4.118,0.093,8.238,0.094,12.358,0.135c1.508,5.99,3.016,11.98,4.524,17.971
			C123.116,237.03,120.801,246.521,118.486,256.011z M56.656,113.369c6.841,10.067,23.751,9.87,29.585-0.023
			c-1.205-0.969-2.423-1.951-3.604-2.901c-6.773,6.778-14.739,6.85-22.183,0.355C59.286,111.59,58.078,112.408,56.656,113.369z"/>
		<path fill-rule="evenodd" clip-rule="evenodd" fill="#010101" d="M120.906,209.57c-4.12-0.041-8.24-0.042-12.358-0.135
			c-4.934-0.109-7.933-3.036-7.936-7.988c-0.02-41.098-0.303-82.197,0.159-123.29c0.226-20.122,8.286-37.512,21.96-52.26
			c14.848-14.891,32.662-23.272,53.8-23.583c23.008-0.338,42.278,8.407,57.953,25.184c1.104,1.182,2.198,2.373,3.297,3.559
			c12.943,16.82,18.204,35.892,17.559,57.009c-0.477,15.586-0.037,31.202-0.006,46.806c0.021,4.949,0.044,9.896,0.065,14.844
			c-0.053,16.488-0.114,32.977-0.156,49.465c-0.021,7.993-2.259,10.257-10.196,10.271c-1.372,0.003-2.743,0.077-4.115,0.118
			c-5.507-0.025-11.013-0.05-16.52-0.076c-0.241-0.551-0.566-1.081-0.711-1.657c-5.023-19.981-10.03-39.967-15.038-59.952
			c1.279-0.763,2.565-1.513,3.838-2.289c21.218-12.931,32.647-31.679,33.771-56.62c0.119-2.63-0.71-4.197-2.827-5.872
			c-8.423-6.662-17.049-13.165-24.771-20.588c-10.552-10.143-21.442-20.372-23.021-36.101
			c-25.291,21.865-52.798,39.763-84.718,51.894c-2.854,23.869,4.774,44.459,23.72,60.667c3.484,2.98,7.486,5.356,11.25,8.011
			c-2.339,9.294-4.646,18.597-7.024,27.881c-2.958,11.551-5.973,23.086-8.964,34.627C126.914,209.521,123.91,209.545,120.906,209.57
			z"/>
		<path fill-rule="evenodd" clip-rule="evenodd" fill="#FE7FB5" d="M129.917,209.494c2.991-11.541,6.006-23.076,8.964-34.627
			c2.377-9.284,4.685-18.587,7.023-27.88c1.049,0.376,2.143,0.66,3.142,1.141c9.13,4.399,18.792,6.382,28.888,6.526
			c10.783,0.156,20.916-2.56,30.729-6.77c5.008,19.985,10.015,39.971,15.038,59.952c0.145,0.576,0.47,1.106,0.712,1.657
			c2.772,11.054,5.544,22.107,8.316,33.161c1.02,4.464,2.04,8.928,3.062,13.392c0.651,2.777,1.303,5.555,2.03,8.654
			c-40.459,0-80.716,0-121.247,0c0.647-2.938,1.28-5.813,1.913-8.69c2.314-9.49,4.629-18.98,6.943-28.47
			C126.925,221.524,128.422,215.51,129.917,209.494z"/>
		<path fill-rule="evenodd" clip-rule="evenodd" fill="none" d="M232.729,242.655c-2.772-11.054-5.544-22.107-8.316-33.161
			c5.506,0.026,11.012,0.051,16.519,0.076C238.197,220.598,235.463,231.627,232.729,242.655z"/>
		<path fill-rule="evenodd" clip-rule="evenodd" fill="#010101" d="M302.173,110.45c1.287,1.12,2.401,2.09,3.467,3.018
			c-3.714,8.85-25.032,9.122-28.721,0.025c1.085-0.905,2.217-1.85,3.329-2.778C288.718,116.631,295.211,116.589,302.173,110.45z"/>
		<path fill-rule="evenodd" clip-rule="evenodd" fill="none" d="M255.399,149.716c-0.021-4.947-0.044-9.895-0.065-14.844
			c2.655,0.438,3.461,1.947,2.752,4.502C257.134,142.806,256.29,146.267,255.399,149.716z"/>
		<path fill-rule="evenodd" clip-rule="evenodd" fill="#010101" d="M56.656,113.369c1.422-0.961,2.63-1.779,3.798-2.569
			c7.444,6.495,15.41,6.423,22.183-0.355c1.181,0.95,2.399,1.932,3.604,2.901C80.407,123.239,63.497,123.436,56.656,113.369z"/>
		<path fill-rule="evenodd" clip-rule="evenodd" fill="none" d="M129.917,209.494c-1.496,6.016-2.992,12.03-4.488,18.047
			c-1.508-5.99-3.016-11.98-4.524-17.971C123.91,209.545,126.914,209.521,129.917,209.494z"/>
		<path fill-rule="evenodd" clip-rule="evenodd" fill="#FDE6BD" d="M208.663,147.885c-9.813,4.21-19.946,6.926-30.729,6.77
			c-10.095-0.145-19.757-2.127-28.888-6.526c-0.999-0.48-2.092-0.765-3.142-1.141c-3.763-2.655-7.765-5.031-11.25-8.012
			c-18.946-16.208-26.575-36.798-23.72-60.667c31.92-12.131,59.428-30.029,84.718-51.894c1.578,15.729,12.469,25.958,23.021,36.101
			c7.723,7.423,16.349,13.926,24.771,20.588c2.117,1.675,2.946,3.242,2.827,5.872c-1.124,24.941-12.554,43.689-33.771,56.62
			C211.229,146.372,209.942,147.122,208.663,147.885z M140.97,87.109c0.983-4.38,3.058-6.727,7.526-6.862
			c4.835-0.146,7.018,2.39,7.935,6.767c1.756-0.502,3.269-0.936,4.77-1.365c-1.693-7.33-5.127-10.388-11.656-10.57
			c-7.585-0.212-11.262,2.588-13.434,10.442C137.598,86.007,139.101,86.499,140.97,87.109z M198.031,87.077
			c1.024-4.229,2.924-6.636,7.25-6.815c4.903-0.202,7.421,2.134,8.151,6.819c1.879-0.576,3.39-1.039,4.886-1.498
			c-2.031-7.727-5.469-10.541-12.577-10.511c-7.078,0.03-10.677,3.001-12.499,10.499C194.728,86.038,196.229,86.51,198.031,87.077z"
			/>
		<path fill-rule="evenodd" clip-rule="evenodd" fill="#010101" d="M140.97,87.109c-1.87-0.61-3.373-1.102-4.859-1.588
			c2.172-7.854,5.849-10.655,13.434-10.442c6.528,0.183,9.963,3.241,11.656,10.57c-1.5,0.429-3.014,0.863-4.77,1.365
			c-0.917-4.376-3.1-6.913-7.935-6.767C144.028,80.382,141.954,82.729,140.97,87.109z"/>
		<path fill-rule="evenodd" clip-rule="evenodd" fill="#010101" d="M198.031,87.077c-1.803-0.566-3.304-1.039-4.789-1.506
			c1.822-7.498,5.421-10.469,12.499-10.499c7.108-0.029,10.546,2.785,12.577,10.511c-1.496,0.459-3.007,0.922-4.886,1.498
			c-0.73-4.685-3.248-7.021-8.151-6.819C200.955,80.441,199.056,82.848,198.031,87.077z"/>
	</g>
</g>
</svg>
